{"asset":{"version":"2.0","generator":"Babylon2Gltf2017","copyright":"2017 (c) BabylonJS"},"scene":0,"scenes":[{"nodes":[0]}],"nodes":[{"children":[1],"mesh":0,"translation":[0.884300232,24.8694382,-2.71048546],"rotation":[0.0,0.0,0.0,-1.0],"scale":[1.0,1.0,1.0],"name":"Box002"},{"mesh":1,"translation":[5.00819874,-24.8694382,0.272957325],"rotation":[0.0,0.0,0.0,-1.0],"scale":[1.0,1.0,1.0],"name":"Box001"}],"meshes":[{"primitives":[{"attributes":{"POSITION":1,"NORMAL":2,"TEXCOORD_0":3},"indices":0,"mode":4,"material":0}],"name":"Box002"},{"primitives":[{"attributes":{"POSITION":5,"NORMAL":6,"TEXCOORD_0":7},"indices":4,"mode":4,"material":1},{"attributes":{"POSITION":9,"NORMAL":10,"TEXCOORD_0":11},"indices":8,"mode":4,"material":2}],"name":"Box001"}],"accessors":[{"bufferView":0,"componentType":5123,"count":36,"type":"SCALAR","name":"accessorIndices"},{"bufferView":1,"componentType":5126,"count":36,"max":[1.65508842,20.86021,22.9116764],"min":[-1.65508842,0.0,-22.9116764],"type":"VEC3","name":"accessorPositions"},{"bufferView":1,"byteOffset":432,"componentType":5126,"count":36,"type":"VEC3","name":"accessorNormals"},{"bufferView":2,"componentType":5126,"count":36,"type":"VEC2","name":"accessorUVs"},{"bufferView":0,"byteOffset":72,"componentType":5123,"count":12,"type":"SCALAR","name":"accessorIndices"},{"bufferView":1,"byteOffset":864,"componentType":5126,"count":12,"max":[19.17556,24.9377289,16.7892284],"min":[-19.17556,0.0,-16.7892284],"type":"VEC3","name":"accessorPositions"},{"bufferView":1,"byteOffset":1008,"componentType":5126,"count":12,"type":"VEC3","name":"accessorNormals"},{"bufferView":2,"byteOffset":288,"componentType":5126,"count":12,"type":"VEC2","name":"accessorUVs"},{"bufferView":0,"byteOffset":96,"componentType":5123,"count":24,"type":"SCALAR","name":"accessorIndices"},{"bufferView":1,"byteOffset":1152,"componentType":5126,"count":24,"max":[19.17556,24.9377289,16.7892284],"min":[-19.17556,0.0,-16.7892284],"type":"VEC3","name":"accessorPositions"},{"bufferView":1,"byteOffset":1440,"componentType":5126,"count":24,"type":"VEC3","name":"accessorNormals"},{"bufferView":2,"byteOffset":384,"componentType":5126,"count":24,"type":"VEC2","name":"accessorUVs"}],"bufferViews":[{"buffer":0,"byteLength":144,"name":"bufferViewScalar"},{"buffer":0,"byteOffset":144,"byteLength":1728,"byteStride":12,"name":"bufferViewFloatVec3"},{"buffer":0,"byteOffset":1872,"byteLength":576,"byteStride":8,"name":"bufferViewFloatVec2"}],"buffers":[{"uri":"parent_multi_mat_obj.bin","byteLength":2448}],"materials":[{"pbrMetallicRoughness":{"baseColorFactor":[0.612745166,0.629085064,1.0,1.0],"metallicFactor":0.0,"roughnessFactor":0.9},"emissiveFactor":[0.0,0.0,0.0],"alphaMode":"OPAQUE","name":"Material #0"},{"pbrMetallicRoughness":{"baseColorFactor":[1.0,1.0,0.09395426,1.0],"metallicFactor":0.0,"roughnessFactor":0.9},"emissiveFactor":[0.0,0.0,0.0],"alphaMode":"OPAQUE","name":"Material #14"},{"pbrMetallicRoughness":{"baseColorFactor":[1.0,0.07761439,0.0285947751,1.0],"metallicFactor":0.0,"roughnessFactor":0.9},"emissiveFactor":[0.0,0.0,0.0],"alphaMode":"OPAQUE","name":"Material #13"}]}