# 3ds Max Wavefront OBJ Exporter v0.97b - (c)2007 guruware
# File Created: 20.03.2018 15:13:14

mtllib parent_multi_mat_obj.mtl

#
# object Box002
#

v  -0.7708 24.8694 20.2012
v  -0.7708 24.8694 -25.6222
v  2.5394 24.8694 -25.6222
v  2.5394 24.8694 20.2012
v  -0.7708 45.7296 20.2012
v  2.5394 45.7296 20.2012
v  2.5394 45.7296 -25.6222
v  -0.7708 45.7296 -25.6222
# 8 vertices

vn 0.0000 -1.0000 -0.0000
vn 0.0000 1.0000 -0.0000
vn 0.0000 0.0000 1.0000
vn 1.0000 0.0000 -0.0000
vn 0.0000 0.0000 -1.0000
vn -1.0000 0.0000 -0.0000
# 6 vertex normals

vt 1.0000 0.0000 0.0000
vt 1.0000 1.0000 0.0000
vt 0.0000 1.0000 0.0000
vt 0.0000 0.0000 0.0000
# 4 texture coords

g Box002
usemtl Material__0
s 2
f 1/1/1 2/2/1 3/3/1 4/4/1 
s 4
f 5/4/2 6/1/2 7/2/2 8/3/2 
s 8
f 1/4/3 4/1/3 6/2/3 5/3/3 
s 16
f 4/4/4 3/1/4 7/2/4 6/3/4 
s 32
f 3/4/5 2/1/5 8/2/5 7/3/5 
s 64
f 2/4/6 1/1/6 5/2/6 8/3/6 
# 6 polygons

#
# object Box001
#

v  -13.2831 0.0000 14.3517
v  -13.2831 0.0000 -19.2268
v  25.0681 0.0000 -19.2268
v  25.0681 0.0000 14.3517
v  -13.2831 24.9377 14.3517
v  25.0681 24.9377 14.3517
v  25.0681 24.9377 -19.2268
v  -13.2831 24.9377 -19.2268
# 8 vertices

vn 0.0000 -1.0000 -0.0000
vn 0.0000 1.0000 -0.0000
vn 0.0000 0.0000 1.0000
vn 1.0000 0.0000 -0.0000
vn 0.0000 0.0000 -1.0000
vn -1.0000 0.0000 -0.0000
# 6 vertex normals

vt 1.0000 0.0000 0.0000
vt 1.0000 1.0000 0.0000
vt 0.0000 1.0000 0.0000
vt 0.0000 0.0000 0.0000
# 4 texture coords

g Box001
usemtl Material__13
s 2
f 9/5/7 10/6/7 11/7/7 12/8/7 
usemtl Material__14
s 4
f 13/8/8 14/5/8 15/6/8 16/7/8 
usemtl Material__13
s 8
f 9/8/9 12/5/9 14/6/9 13/7/9 
s 16
f 12/8/10 11/5/10 15/6/10 14/7/10 
usemtl Material__14
s 32
f 11/8/11 10/5/11 16/6/11 15/7/11 
usemtl Material__13
s 64
f 10/8/12 9/5/12 13/6/12 16/7/12 
# 6 polygons

